<?xml version="1.0" encoding="UTF-8"?>
<svg version="1.1" xmlns="http://www.w3.org/2000/svg" width="261" height="79">
<path d="M0 0 C0.68429077 -0.00095673 1.36858154 -0.00191345 2.0736084 -0.00289917 C3.52286877 -0.0035808 4.97213218 -0.00172773 6.42138672 0.00244141 C8.64687928 0.00778998 10.87217001 0.0024959 13.09765625 -0.00390625 C14.50260461 -0.00324547 15.90755285 -0.0019643 17.3125 0 C18.59962891 0.00112793 19.88675781 0.00225586 21.21289062 0.00341797 C24.15625 0.1328125 24.15625 0.1328125 25.15625 1.1328125 C25.25596786 3.04739532 25.28705589 4.96563567 25.2890625 6.8828125 C25.29099609 8.63078125 25.29099609 8.63078125 25.29296875 10.4140625 C25.28910156 11.64125 25.28523438 12.8684375 25.28125 14.1328125 C25.28705078 15.97359375 25.28705078 15.97359375 25.29296875 17.8515625 C25.29167969 19.016875 25.29039062 20.1821875 25.2890625 21.3828125 C25.28793457 22.46046875 25.28680664 23.538125 25.28564453 24.6484375 C25.15625 27.1328125 25.15625 27.1328125 24.15625 28.1328125 C22.59452255 28.21966853 21.02895656 28.23983469 19.46484375 28.23046875 C18.52060547 28.22724609 17.57636719 28.22402344 16.60351562 28.22070312 C15.61029297 28.21232422 14.61707031 28.20394531 13.59375 28.1953125 C12.59666016 28.19080078 11.59957031 28.18628906 10.57226562 28.18164062 C8.10020151 28.16981257 5.62825482 28.15333099 3.15625 28.1328125 C2.22201355 25.12249506 2.11175089 24.26630982 3.15625 21.1328125 C9.59125 20.6378125 9.59125 20.6378125 16.15625 20.1328125 C16.15625 19.4728125 16.15625 18.8128125 16.15625 18.1328125 C11.86625 17.8028125 7.57625 17.4728125 3.15625 17.1328125 C2.15625 13.1328125 2.15625 13.1328125 3.15625 10.1328125 C9.59125 9.6378125 9.59125 9.6378125 16.15625 9.1328125 C16.15625 8.8028125 16.15625 8.4728125 16.15625 8.1328125 C15.46474854 8.10775635 14.77324707 8.0827002 14.06079102 8.05688477 C10.94657134 7.94129089 7.83268211 7.81840008 4.71875 7.6953125 C3.63013672 7.65599609 2.54152344 7.61667969 1.41992188 7.57617188 C0.38544922 7.53427734 -0.64902344 7.49238281 -1.71484375 7.44921875 C-2.67318115 7.41256104 -3.63151855 7.37590332 -4.61889648 7.33813477 C-6.84375 7.1328125 -6.84375 7.1328125 -7.84375 6.1328125 C-7.96875 3.6328125 -7.96875 3.6328125 -7.84375 1.1328125 C-5.93525052 -0.77568698 -2.52896226 0.00221617 0 0 Z " fill="#FEFEFE" transform="translate(157.84375,30.8671875)"/>
<path d="M0 0 C0.68429077 -0.00095673 1.36858154 -0.00191345 2.0736084 -0.00289917 C3.52286877 -0.0035808 4.97213218 -0.00172773 6.42138672 0.00244141 C8.64687928 0.00778998 10.87217001 0.0024959 13.09765625 -0.00390625 C14.50260461 -0.00324547 15.90755285 -0.0019643 17.3125 0 C18.59962891 0.00112793 19.88675781 0.00225586 21.21289062 0.00341797 C24.15625 0.1328125 24.15625 0.1328125 25.15625 1.1328125 C25.28125 3.6328125 25.28125 3.6328125 25.15625 6.1328125 C23.47324331 7.81581919 21.33616273 7.36090327 19.02734375 7.44921875 C17.99287109 7.49111328 16.95839844 7.53300781 15.89257812 7.57617188 C14.2596582 7.63514648 14.2596582 7.63514648 12.59375 7.6953125 C10.9550293 7.76008789 10.9550293 7.76008789 9.28320312 7.82617188 C6.57438232 7.93263208 3.86533349 8.03326057 1.15625 8.1328125 C1.15625 12.0928125 1.15625 16.0528125 1.15625 20.1328125 C2.80496094 20.19339844 4.45367187 20.25398438 6.15234375 20.31640625 C8.299489 20.40079187 10.44662391 20.48544085 12.59375 20.5703125 C13.68236328 20.60962891 14.77097656 20.64894531 15.89257812 20.68945312 C16.92705078 20.73134766 17.96152344 20.77324219 19.02734375 20.81640625 C19.98568115 20.85306396 20.94401855 20.88972168 21.93139648 20.92749023 C24.15625 21.1328125 24.15625 21.1328125 25.15625 22.1328125 C25.28125 24.6328125 25.28125 24.6328125 25.15625 27.1328125 C23.24775052 29.04131198 19.84146226 28.26340883 17.3125 28.265625 C16.62820923 28.26658173 15.94391846 28.26753845 15.2388916 28.26852417 C13.78963123 28.2692058 12.34036782 28.26735273 10.89111328 28.26318359 C8.66562072 28.25783502 6.44032999 28.2631291 4.21484375 28.26953125 C2.80989539 28.26887047 1.40494715 28.2675893 0 28.265625 C-1.28712891 28.26449707 -2.57425781 28.26336914 -3.90039062 28.26220703 C-6.84375 28.1328125 -6.84375 28.1328125 -7.84375 27.1328125 C-7.94346786 25.21822968 -7.97455589 23.29998933 -7.9765625 21.3828125 C-7.97785156 20.2175 -7.97914062 19.0521875 -7.98046875 17.8515625 C-7.97660156 16.624375 -7.97273438 15.3971875 -7.96875 14.1328125 C-7.97261719 12.905625 -7.97648437 11.6784375 -7.98046875 10.4140625 C-7.97917969 9.24875 -7.97789063 8.0834375 -7.9765625 6.8828125 C-7.97543457 5.80515625 -7.97430664 4.7275 -7.97314453 3.6171875 C-7.71239344 -1.38923349 -4.28855703 0.00375812 0 0 Z " fill="#FEFEFE" transform="translate(87.84375,30.8671875)"/>
<path d="M0 0 C0.68429077 -0.00095673 1.36858154 -0.00191345 2.0736084 -0.00289917 C3.52286877 -0.0035808 4.97213218 -0.00172773 6.42138672 0.00244141 C8.64687928 0.00778998 10.87217001 0.0024959 13.09765625 -0.00390625 C14.50260461 -0.00324547 15.90755285 -0.0019643 17.3125 0 C18.59962891 0.00112793 19.88675781 0.00225586 21.21289062 0.00341797 C24.15625 0.1328125 24.15625 0.1328125 25.15625 1.1328125 C25.28125 3.6328125 25.28125 3.6328125 25.15625 6.1328125 C23.47324331 7.81581919 21.33616273 7.36090327 19.02734375 7.44921875 C17.99287109 7.49111328 16.95839844 7.53300781 15.89257812 7.57617188 C14.2596582 7.63514648 14.2596582 7.63514648 12.59375 7.6953125 C10.9550293 7.76008789 10.9550293 7.76008789 9.28320312 7.82617188 C6.57438232 7.93263208 3.86533349 8.03326057 1.15625 8.1328125 C1.15625 12.0928125 1.15625 16.0528125 1.15625 20.1328125 C5.44625 20.4628125 9.73625 20.7928125 14.15625 21.1328125 C15.15625 25.1328125 15.15625 25.1328125 14.15625 28.1328125 C10.67710059 28.16169064 7.19798169 28.17956937 3.71875 28.1953125 C2.22891602 28.20788086 2.22891602 28.20788086 0.70898438 28.22070312 C-0.23525391 28.22392578 -1.17949219 28.22714844 -2.15234375 28.23046875 C-3.46416626 28.23832397 -3.46416626 28.23832397 -4.80249023 28.24633789 C-6.84375 28.1328125 -6.84375 28.1328125 -7.84375 27.1328125 C-7.94346786 25.21822968 -7.97455589 23.29998933 -7.9765625 21.3828125 C-7.97785156 20.2175 -7.97914062 19.0521875 -7.98046875 17.8515625 C-7.97660156 16.624375 -7.97273437 15.3971875 -7.96875 14.1328125 C-7.97261719 12.905625 -7.97648438 11.6784375 -7.98046875 10.4140625 C-7.97917969 9.24875 -7.97789063 8.0834375 -7.9765625 6.8828125 C-7.97543457 5.80515625 -7.97430664 4.7275 -7.97314453 3.6171875 C-7.71239344 -1.38923349 -4.28855703 0.00375812 0 0 Z " fill="#FEFEFE" transform="translate(17.84375,30.8671875)"/>
<path d="M0 0 C3.47914941 -0.02887814 6.95826831 -0.04675687 10.4375 -0.0625 C11.92733398 -0.07506836 11.92733398 -0.07506836 13.44726562 -0.08789062 C14.39150391 -0.09111328 15.33574219 -0.09433594 16.30859375 -0.09765625 C17.62041626 -0.10551147 17.62041626 -0.10551147 18.95874023 -0.11352539 C21 0 21 0 22 1 C22.07313567 3.53049402 22.09247527 6.03304837 22.0625 8.5625 C22.05798828 9.27341797 22.05347656 9.98433594 22.04882812 10.71679688 C22.03700864 12.47790013 22.01907263 14.23896036 22 16 C20.02 16.66 18.04 17.32 16 18 C16 18.66 16 19.32 16 20 C17.65 20.33 19.3 20.66 21 21 C22.125 25.75 22.125 25.75 21 28 C17.44676488 28.76305917 14.54651914 28.85848281 11 28 C6.42346901 24.56760175 1.30040189 20.24225763 -0.87109375 14.828125 C-1 13 -1 13 0 10 C6.435 9.505 6.435 9.505 13 9 C13 8.67 13 8.34 13 8 C8.71 7.67 4.42 7.34 0 7 C-1 3 -1 3 0 0 Z " fill="#FEFEFE" transform="translate(56,31)"/>
<path d="M0 0 C4.84395546 0.62016039 7.09995215 3.10267958 10.57421875 6.37109375 C11.89034745 7.56944551 13.20806946 8.76604961 14.52734375 9.9609375 C15.49897461 10.84821533 15.49897461 10.84821533 16.49023438 11.75341797 C19.99504409 14.85847724 23.75470871 17.63652077 27.5078125 20.43359375 C29.38671875 22.43359375 29.38671875 22.43359375 29.734375 25.12109375 C29.38671875 27.43359375 29.38671875 27.43359375 28.38671875 28.43359375 C25.82421875 28.93359375 25.82421875 28.93359375 22.38671875 28.43359375 C20.19149132 26.71027701 18.2598523 24.86917108 16.31640625 22.8671875 C14.51490388 21.21301607 14.51490388 21.21301607 12.35546875 21.52734375 C10.11550582 22.5584378 8.7578737 23.76223567 7.01171875 25.49609375 C4.38185965 27.86523406 3.66665488 28.39730573 0.01171875 28.87109375 C-2.61328125 28.43359375 -2.61328125 28.43359375 -3.61328125 27.43359375 C-3.92578125 25.109375 -3.92578125 25.109375 -3.61328125 22.43359375 C-1.86328125 20.4140625 -1.86328125 20.4140625 0.38671875 18.62109375 C1.12921875 18.01652344 1.87171875 17.41195312 2.63671875 16.7890625 C3.21421875 16.34175781 3.79171875 15.89445312 4.38671875 15.43359375 C2.98769872 12.22128077 2.1781871 11.27093906 -0.73828125 8.99609375 C-3.61328125 6.43359375 -3.61328125 6.43359375 -4.05078125 3.68359375 C-3.43072755 0.49474617 -3.25683446 0.54037164 0 0 Z " fill="#FEFEFE" transform="translate(223.61328125,30.56640625)"/>
<path d="M0 0 C0.68429077 -0.00095673 1.36858154 -0.00191345 2.0736084 -0.00289917 C3.52286877 -0.0035808 4.97213218 -0.00172773 6.42138672 0.00244141 C8.64687928 0.00778998 10.87217001 0.0024959 13.09765625 -0.00390625 C14.50260461 -0.00324547 15.90755285 -0.0019643 17.3125 0 C18.59962891 0.00112793 19.88675781 0.00225586 21.21289062 0.00341797 C24.15625 0.1328125 24.15625 0.1328125 25.15625 1.1328125 C25.25596786 3.04739532 25.28705589 4.96563567 25.2890625 6.8828125 C25.29099609 8.63078125 25.29099609 8.63078125 25.29296875 10.4140625 C25.28910156 11.64125 25.28523438 12.8684375 25.28125 14.1328125 C25.28705078 15.97359375 25.28705078 15.97359375 25.29296875 17.8515625 C25.29167969 19.016875 25.29039062 20.1821875 25.2890625 21.3828125 C25.28793457 22.46046875 25.28680664 23.538125 25.28564453 24.6484375 C25.15625 27.1328125 25.15625 27.1328125 24.15625 28.1328125 C21.15625 28.2578125 21.15625 28.2578125 18.15625 28.1328125 C16.60674732 26.58330982 16.93969807 25.03290656 16.83984375 22.87890625 C16.79794922 22.02490234 16.75605469 21.17089844 16.71289062 20.29101562 C16.67357422 19.39318359 16.63425781 18.49535156 16.59375 17.5703125 C16.55056641 16.66861328 16.50738281 15.76691406 16.46289062 14.83789062 C16.35646858 12.60302765 16.25445012 10.36804942 16.15625 8.1328125 C15.46474854 8.10775635 14.77324707 8.0827002 14.06079102 8.05688477 C10.94657134 7.94129089 7.83268211 7.81840008 4.71875 7.6953125 C3.63013672 7.65599609 2.54152344 7.61667969 1.41992188 7.57617188 C0.38544922 7.53427734 -0.64902344 7.49238281 -1.71484375 7.44921875 C-2.67318115 7.41256104 -3.63151855 7.37590332 -4.61889648 7.33813477 C-6.84375 7.1328125 -6.84375 7.1328125 -7.84375 6.1328125 C-7.96875 3.6328125 -7.96875 3.6328125 -7.84375 1.1328125 C-5.93525052 -0.77568698 -2.52896226 0.00221617 0 0 Z " fill="#FEFEFE" transform="translate(192.84375,30.8671875)"/>
<path d="M0 0 C2.98881361 0.01833628 5.5563447 0.53853281 8.4375 1.3125 C12.49296098 2.30398791 15.134389 1.93082606 19.07421875 0.70703125 C22.06892421 -0.10087103 24.9272632 -0.00062674 28 0.1875 C29 1.1875 29 1.1875 29.0625 3.75 C29.041875 4.554375 29.02125 5.35875 29 6.1875 C18.63359815 10.77263928 9.87365561 11.52479765 -1.1015625 7.94140625 C-3 7.1875 -3 7.1875 -4 6.1875 C-4.125 3.6875 -4.125 3.6875 -4 1.1875 C-3 0.1875 -3 0.1875 0 0 Z " fill="#FEFEFE" transform="translate(119,30.8125)"/>
<path d="M0 0 C4.55555556 0.55555556 4.55555556 0.55555556 6 2 C6.45459858 4.65463121 6.70243238 7.32189138 7 10 C11.29 10.33 15.58 10.66 20 11 C21 15 21 15 20 18 C16.52085059 18.02887814 13.04173169 18.04675687 9.5625 18.0625 C8.07266602 18.07506836 8.07266602 18.07506836 6.55273438 18.08789062 C5.60849609 18.09111328 4.66425781 18.09433594 3.69140625 18.09765625 C2.37958374 18.10551147 2.37958374 18.10551147 1.04125977 18.11352539 C-1 18 -1 18 -2 17 C-2.12653198 14.50761431 -2.18519825 12.05529559 -2.1875 9.5625 C-2.19974609 8.86833984 -2.21199219 8.17417969 -2.22460938 7.45898438 C-2.22989842 5.63779099 -2.12169207 3.8171308 -2 2 C-1.34 1.34 -0.68 0.68 0 0 Z " fill="#FEFEFE" transform="translate(187,41)"/>
<path d="M0 0 C3 0.125 3 0.125 4 1.125 C4.09971786 3.03958282 4.13080589 4.95782317 4.1328125 6.875 C4.13474609 8.62296875 4.13474609 8.62296875 4.13671875 10.40625 C4.13285156 11.6334375 4.12898438 12.860625 4.125 14.125 C4.12886719 15.3521875 4.13273437 16.579375 4.13671875 17.84375 C4.13542969 19.0090625 4.13414063 20.174375 4.1328125 21.375 C4.13168457 22.45265625 4.13055664 23.5303125 4.12939453 24.640625 C4 27.125 4 27.125 3 28.125 C0 28.25 0 28.25 -3 28.125 C-4.77449594 26.35050406 -4.13030072 23.77482739 -4.1328125 21.375 C-4.13410156 20.2096875 -4.13539062 19.044375 -4.13671875 17.84375 C-4.13285156 16.6165625 -4.12898438 15.389375 -4.125 14.125 C-4.12886719 12.8978125 -4.13273437 11.670625 -4.13671875 10.40625 C-4.13542969 9.2409375 -4.13414063 8.075625 -4.1328125 6.875 C-4.13168457 5.79734375 -4.13055664 4.7196875 -4.12939453 3.609375 C-3.93972678 -0.03224581 -3.70414701 0.15433946 0 0 Z " fill="#FEFEFE" transform="translate(49,30.875)"/>
<path d="M0 0 C0.79792969 0.00386719 1.59585938 0.00773437 2.41796875 0.01171875 C3.21589844 0.00785156 4.01382813 0.00398438 4.8359375 0 C10.79136108 0.01011108 10.79136108 0.01011108 11.91796875 1.13671875 C12.01778089 3.81403255 12.0567675 6.4597605 12.04296875 9.13671875 C12.04876953 10.26207031 12.04876953 10.26207031 12.0546875 11.41015625 C12.04457928 17.01010822 12.04457928 17.01010822 10.91796875 18.13671875 C8.91838511 18.17752658 6.91751621 18.17926231 4.91796875 18.13671875 C4.25796875 14.83671875 3.59796875 11.53671875 2.91796875 8.13671875 C1.45359375 7.99234375 -0.01078125 7.84796875 -1.51953125 7.69921875 C-5.95703125 7.26171875 -5.95703125 7.26171875 -7.08203125 6.13671875 C-7.20703125 3.63671875 -7.20703125 3.63671875 -7.08203125 1.13671875 C-5.19650595 -0.74880655 -2.50434294 0.00425186 0 0 Z " fill="#FEFEFE" transform="translate(31.08203125,40.86328125)"/>
<path d="M0 0 C3 0.125 3 0.125 4 1.125 C4.09981214 3.8023138 4.13879875 6.44804175 4.125 9.125 C4.12886719 9.87523437 4.13273438 10.62546875 4.13671875 11.3984375 C4.12661053 16.99838947 4.12661053 16.99838947 3 18.125 C0 18.25 0 18.25 -3 18.125 C-4.82116003 16.30383997 -4.1323508 13.81828236 -4.13671875 11.3984375 C-4.13285156 10.64820313 -4.12898437 9.89796875 -4.125 9.125 C-4.12886719 8.37476563 -4.13273438 7.62453125 -4.13671875 6.8515625 C-4.12466153 0.1718609 -4.12466153 0.1718609 0 0 Z " fill="#FEFEFE" transform="translate(154,40.875)"/>
<path d="M0 0 C5.94 0 11.88 0 18 0 C19 4 19 4 18 7 C12.06 7 6.12 7 0 7 C-1 3 -1 3 0 0 Z " fill="#FEFEFE" transform="translate(91,41)"/>
<path d="M0 0 C2.75 0.375 2.75 0.375 3.75 1.375 C4.1875 3.625 4.1875 3.625 3.75 6.375 C0.91807445 9.33864302 -0.93403833 11.19953844 -5.0625 11.75 C-7.25 11.375 -7.25 11.375 -8.25 10.375 C-8.625 8.125 -8.625 8.125 -8.25 5.375 C-5.65360237 1.93859137 -4.33709582 0.50043413 0 0 Z " fill="#FEFEFE" transform="translate(249.25,30.625)"/>
<path d="M0 0 C2.5 0.125 2.5 0.125 3.5 1.125 C3.59873816 3.12299572 3.62971799 5.12457158 3.625 7.125 C3.62757813 8.218125 3.63015625 9.31125 3.6328125 10.4375 C3.5 13.125 3.5 13.125 2.5 14.125 C0 14.25 0 14.25 -2.5 14.125 C-3.5 13.125 -3.5 13.125 -3.6328125 10.4375 C-3.63023438 9.344375 -3.62765625 8.25125 -3.625 7.125 C-3.62757812 6.031875 -3.63015625 4.93875 -3.6328125 3.8125 C-3.45293603 0.1726468 -3.45293603 0.1726468 0 0 Z " fill="#FEFEFE" transform="translate(131.5,44.875)"/>
</svg>
